<svg
  shape-rendering="HANDLE_LONG_L_X118_Y_MIN_26"
  text-rendering="HANDLE"
  style="background-color:transparent"
>
  <defs>
    <linearGradient
      id="ejAhJKyMeNP10-fill"
      x1="0.5"
      y1="1.910669"
      x2="0.5"
      y2="0"
      spreadMethod="pad"
      gradientUnits="objectBoundingBox"
      gradientTransform="translate(0 0)"
    >
      <stop id="ejAhJKyMeNP10-fill-0" offset="0%" stop-color="#000" />
      <stop
        id="ejAhJKyMeNP10-fill-1"
        offset="100%"
        stop-color="#fff"
      />
    </linearGradient>
  </defs>
  <g transform="matrix(-1 0 0 1 134 0)">
    <path
      d="M16,0c8.83656,0,16,7.16344,16,16v212c0,8.83656-7.16344,16-16,16s-16-7.16344-16-16L0,16c0,0,0,0,0,0C0,7.16344,7.16344,0,16,0Z"
      transform="matrix(-1 0 0 1 32 0)"
      fill="#b6b6b6"
      stroke="#000"
    />
    <path
      d="M51.21661,74.9712c-2.76142,0-5-2.23858-5-5v-11.51555c-2.41197-1.61452-4-4.36403-4-7.48445c0-4.97056,4.02944-9,9-9s9,4.02944,9,9c0,3.12042-1.58803,5.86993-4,7.48445v11.51555c0,2.76142-2.23858,5-5,5Z"
      transform="matrix(-1 0 0 1 67.21661 117.0288)"
      fill="none"
      stroke="#000"
    />
    <ellipse
      rx="7"
      ry="7"
      transform="matrix(-1 0 0 1 16 168)"
      fill="none"
      stroke="#000"
    />
    <rect
      width="1.894996"
      height="5.984197"
      rx="0"
      ry="0"
      transform="matrix(-1 0 0 1 16.862574 163.090314)"
      fill="none"
      stroke="#000"
    />
    <ellipse
      rx="3"
      ry="3"
      transform="matrix(-1 0 0 1 16 16)"
      fill="none"
      stroke="#000"
    />
    <ellipse
      rx="3"
      ry="3"
      transform="matrix(-1 0 0 1 16 228)"
      fill="none"
      stroke="#000"
    />
    <path
      d="M6,77.80471c0-5.52285,4.47715-10,10-10c0,0,108,0,108,0c5.52285,0,10,4.47715,10,10s-4.47715,10-10,10h-108c-5.52285,0-10-4.47715-10-10Z"
      transform="matrix(-1 0 0 1 140 8.19529)"
      fill="rgba(0,0,0,0.13)"
    />
    <path
      d="M6,77.80471c0-5.52285,4.47715-10,10-10c0,0,108,0,108,0c5.52285,0,10,4.47715,10,10s-4.47715,10-10,10h-108c-5.52285,0-10-4.47715-10-10Z"
      transform="matrix(-1 0 0 1 140-1.80471)"
      fill="url(#ejAhJKyMeNP10-fill)"
      stroke="#000"
    />
  </g>
</svg>