<svg
  shape-rendering="geometricPrecision"
  text-rendering="geometricPrecision"
  style="background-color:transparent"
><defs><radialGradient
      id="ebA8JTRBxQF3-fill"
      cx="0"
      cy="0"
      r="0.5"
      spreadMethod="pad"
      gradientUnits="objectBoundingBox"
      gradientTransform="translate(0.5 0.5)"
    ><stop id="ebA8JTRBxQF3-fill-0" offset="0%" stop-color="#555" /><stop
        id="ebA8JTRBxQF3-fill-1"
        offset="100%"
        stop-color="#b8b8b8"
      /></radialGradient><radialGradient
      id="ebA8JTRBxQF4-fill"
      cx="0"
      cy="0"
      r="0.5"
      spreadMethod="pad"
      gradientUnits="objectBoundingBox"
      gradientTransform="translate(0.5 0.5)"
    ><stop id="ebA8JTRBxQF4-fill-0" offset="0%" stop-color="#000" /><stop
        id="ebA8JTRBxQF4-fill-1"
        offset="100%"
        stop-color="#dcdcdc"
      /></radialGradient><radialGradient
      id="ebA8JTRBxQF8-fill"
      cx="0"
      cy="0"
      r="0.5"
      spreadMethod="pad"
      gradientUnits="objectBoundingBox"
      gradientTransform="translate(0.5 0.5)"
    ><stop id="ebA8JTRBxQF8-fill-0" offset="0%" stop-color="#555" /><stop
        id="ebA8JTRBxQF8-fill-1"
        offset="100%"
        stop-color="#b8b8b8"
      /></radialGradient><radialGradient
      id="ebA8JTRBxQF9-fill"
      cx="0"
      cy="0"
      r="0.5"
      spreadMethod="pad"
      gradientUnits="objectBoundingBox"
      gradientTransform="translate(0.5 0.5)"
    ><stop id="ebA8JTRBxQF9-fill-0" offset="0%" stop-color="#000" /><stop
        id="ebA8JTRBxQF9-fill-1"
        offset="100%"
        stop-color="#dcdcdc"
      /></radialGradient><linearGradient
      id="ebA8JTRBxQF11-fill"
      x1="0.546935"
      y1="1"
      x2="0.546935"
      y2="0.333333"
      spreadMethod="pad"
      gradientUnits="objectBoundingBox"
      gradientTransform="translate(0 0)"
    ><stop id="ebA8JTRBxQF11-fill-0" offset="0%" stop-color="#000" /><stop
        id="ebA8JTRBxQF11-fill-1"
        offset="100%"
        stop-color="#fff"
      /></linearGradient></defs><g transform="matrix(-1 0 0 1 143-1)"><ellipse
      rx="25"
      ry="25"
      transform="translate(26.016211 124.5)"
      fill="url(#ebA8JTRBxQF3-fill)"
      stroke="#000"
    /><ellipse
      rx="20"
      ry="20"
      transform="translate(25.947498 124.5)"
      fill="url(#ebA8JTRBxQF4-fill)"
    /><path
      d="M51.21661,74.9712c-2.76142,0-5-2.23858-5-5v-11.51555c-2.41197-1.61452-4-4.36403-4-7.48445c0-4.97056,4.02944-9,9-9s9,4.02944,9,9c0,3.12042-1.58803,5.86993-4,7.48445v11.51555c0,2.76142-2.23858,5-5,5Z"
      transform="matrix(-1 0 0 1 77.232821 66.5288)"
      fill="#c5c5c5"
      stroke="#000"
    /><ellipse
      rx="7"
      ry="7"
      transform="matrix(-1 0 0 1 26.016211 117.5)"
      fill="none"
      stroke="#000"
    /><rect
      width="1.894996"
      height="5.984197"
      rx="0"
      ry="0"
      transform="matrix(-1 0 0 1 26.878785 112.590314)"
      fill="none"
      stroke="#000"
    /><ellipse
      rx="25"
      ry="25"
      transform="translate(26 26)"
      fill="url(#ebA8JTRBxQF8-fill)"
      stroke="#000"
    /><ellipse
      rx="20"
      ry="20"
      transform="translate(25.931287 26)"
      fill="url(#ebA8JTRBxQF9-fill)"
    /><path
      d="M13.93129,34c0-6.62742,5.37258-12,12-12h3.6528c7.5217,5.65119,16.87196,9,27.00438,9L140,31c1.65685,0,3,1.34315,3,3c0,.76835-.28886,1.46924-.7639,2c.47504.53076.7639,1.23165.7639,2c0,1.65685-1.34315,3-3,3h-83.41153c-10.13242,0-19.48269,3.34881-27.00438,9h-3.6528c-6.62742,0-12-5.37258-12-12c0-.68142.0568-1.34958.16592-2-.10912-.65042-.16592-1.31858-.16592-2Z"
      fill="rgba(0,0,0,0.29)"
    /><path
      d="M13.93129,26c0-6.62742,5.37258-12,12-12h3.6528c7.5217,5.65119,16.87196,9,27.00438,9L140,23c1.65685,0,3,1.34315,3,3s-1.34315,3-3,3h-83.41153c0,0,0,0,0,0-10.13242,0-19.48269,3.34881-27.00438,9h-3.6528c-6.62742,0-12-5.37258-12-12Z"
      fill="url(#ebA8JTRBxQF11-fill)"
      stroke="#000"
    /></g></svg>
